<?xml version="1.0" encoding="UTF-8"?>
<svg id="Satosh.ie_Logo_Color" xmlns="http://www.w3.org/2000/svg" viewBox="0 0 1300 298.27">
  <defs>
    <style>
      .cls-1, .cls-2 {
        stroke-width: 0px;
      }

      .cls-2 {
        fill: #08ff00;
      }
    </style>
  </defs>
  <g>
    <path class="cls-2" d="m177.69,188.07c-8.48,0-15.39,6.82-15.39,15.39s6.92,15.29,15.39,15.29,15.39-6.82,15.39-15.29-6.82-15.39-15.39-15.39Z"/>
    <path class="cls-2" d="m338.12,134.35V15.22c0-13.53-16.36-20.31-25.93-10.74l-76.34,76.34c-3.1,3.1-7.32,4.85-11.71,4.85h-91.89c-4.35,0-7.87-3.52-7.87-7.87V15.22c0-13.53-16.36-20.31-25.93-10.74L23.51,79.42c-4,4-6.24,9.41-6.24,15.07v39.86H6.09c-3.36,0-6.09,2.73-6.09,6.09v103.06c0,3.36,2.73,6.09,6.09,6.09h11.18v12.14c0,20.18,16.36,36.54,36.54,36.54h247.77c20.18,0,36.54-16.36,36.54-36.54v-12.14h11.18c3.36,0,6.09-2.73,6.09-6.09v-103.06c0-3.36-2.73-6.09-6.09-6.09h-11.18Zm-24.36,120.31c0,10.63-8.62,19.25-19.25,19.25H60.89c-10.63,0-19.25-8.62-19.25-19.25v-125.37c0-10.63,8.62-19.25,19.25-19.25h233.62c10.63,0,19.25,8.62,19.25,19.25v125.37Z"/>
    <g>
      <rect class="cls-2" x="90.03" y="159.96" width="36.83" height="64.01" rx="6.09" ry="6.09"/>
      <rect class="cls-2" x="228.53" y="159.96" width="36.83" height="64.01" rx="6.09" ry="6.09"/>
    </g>
  </g>
  <g>
    <path class="cls-1" d="m427.87,243.66l14.46-15.01c9.52,10.98,20.68,16.1,33.31,16.1,14.64,0,22.69-6.95,22.69-19.22,0-10.06-5.31-15.01-19.21-17.2l-13.54-2.2c-23.61-4.03-32.76-18.3-32.76-36.05,0-24.34,17.02-37.88,44.83-37.88,19.95,0,34.59,6.77,43.37,17.75l-14.09,15.01c-6.77-8.05-16.29-13.18-29.1-13.18-13.72,0-20.86,5.86-20.86,17.2,0,9.7,5.31,14.46,19.4,16.84l13.36,2.38c21.96,4.03,32.76,16.65,32.76,35.68,0,23.79-16.65,40.44-47.58,40.44-21.78,0-37.33-8.24-47.03-20.68Z"/>
    <path class="cls-1" d="m607.15,262.14l-8.97-32.39h-37.88l-8.78,32.39h-24.16l35.87-127.73h33.31l36.05,127.73h-25.44Zm-27.08-104.13h-1.46l-14.09,52.15h29.65l-14.09-52.15Z"/>
    <path class="cls-1" d="m685.62,154.17v107.97h-23.79v-107.97h-38.43v-19.76h100.65v19.76h-38.43Z"/>
    <path class="cls-1" d="m729.24,198.28c0-41.72,15.01-66.06,48.31-66.06s48.31,24.34,48.31,66.06-15.01,66.06-48.31,66.06-48.31-24.34-48.31-66.06Zm71.19,10.8v-21.78c0-21.96-5.86-35.5-22.87-35.5s-22.87,13.54-22.87,35.5v21.96c0,21.96,5.86,35.5,22.87,35.5s22.87-13.54,22.87-35.68Z"/>
    <path class="cls-1" d="m832.47,243.66l14.46-15.01c9.52,10.98,20.68,16.1,33.31,16.1,14.64,0,22.69-6.95,22.69-19.22,0-10.06-5.31-15.01-19.21-17.2l-13.54-2.2c-23.61-4.03-32.76-18.3-32.76-36.05,0-24.34,17.02-37.88,44.83-37.88,19.95,0,34.59,6.77,43.37,17.75l-14.09,15.01c-6.77-8.05-16.29-13.18-29.1-13.18-13.72,0-20.86,5.86-20.86,17.2,0,9.7,5.31,14.46,19.4,16.84l13.36,2.38c21.96,4.03,32.76,16.65,32.76,35.68,0,23.79-16.65,40.44-47.58,40.44-21.78,0-37.33-8.24-47.03-20.68Z"/>
    <path class="cls-1" d="m1002.84,207.24h-37.33v54.9h-23.97v-127.73h23.97v53.07h37.33v-53.07h23.97v127.73h-23.97v-54.9Z"/>
    <path class="cls-1" d="m1056.99,250.25v-5.49c0-7.69,4.94-13.91,17.57-13.91s17.57,6.22,17.57,13.91v5.49c0,7.69-4.94,13.91-17.57,13.91s-17.57-6.22-17.57-13.91Z"/>
    <path class="cls-1" d="m1120.6,262.14v-17.93h28.73v-91.86h-28.73v-17.93h81.25v17.93h-28.73v91.86h28.73v17.93h-81.25Z"/>
    <path class="cls-1" d="m1219.3,262.14v-127.73h80.7v19.76h-56.73v33.31h54.72v19.76h-54.72v35.14h56.73v19.76h-80.7Z"/>
  </g>
</svg>